<svg xmlns="http://www.w3.org/2000/svg" viewBox="0 0 1458 938" width="1458" height="938">
	<defs>
		<clipPath clipPathUnits="userSpaceOnUse" id="cp1">
			<path d="M0 0L1458 0L1458 938L0 938Z" />
		</clipPath>
	</defs>
	<style>
		tspan { white-space:pre }
		.shp0 { fill: #ffffff } 
	</style>
	<g id="Page 1" clip-path="url(#cp1)">
		<text id=" " style="transform: matrix(1,0,0,1,0,0.5)" >
		</text>
		<text id=" " style="transform: matrix(1,0,0,1,0,0.5)" >
		</text>
		<text id=" " style="transform: matrix(1,0,0,1,0,0.5)" >
		</text>
		<text id=" " style="transform: matrix(1,0,0,1,1002,123)" >
		</text>
		<text id=" " style="transform: matrix(1,0,0,1,1082.04,884.829)" >
		</text>
		<path id="Path 5" fill-rule="evenodd" class="shp0" d="M1240.4 678.25L988.65 678.25C929.81 678.25 847.75 625.91 847.75 540.67C847.75 538.95 849.15 537.55 850.88 537.55C996.92 537.55 1081.22 525.8 1150.56 513.12C1157.23 511.91 1163.74 510.71 1170.14 509.48C1175 508.56 1179.79 507.64 1184.54 506.73C1243.9 495.37 1295.16 485.57 1377.08 485.57C1377.94 485.57 1378.76 485.92 1379.35 486.54C1379.94 487.16 1380.25 488 1380.2 488.86C1377.36 543.36 1363.51 589.93 1340.15 623.53C1315.26 659.33 1280.77 678.25 1240.4 678.25ZM854.04 543.79C856.02 623.31 933.15 672 988.65 672L1240.4 672C1278.63 672 1311.35 654.01 1335.02 619.96C1357.25 587.99 1370.62 543.74 1373.78 491.82C1294.36 492.09 1243.96 501.73 1185.71 512.87C1180.96 513.78 1176.17 514.7 1171.31 515.62C1164.89 516.85 1158.36 518.06 1151.68 519.27C1082.56 531.91 998.64 543.63 854.04 543.79ZM562.52 333.88L202.96 333.88C201.23 333.88 199.83 332.48 199.83 330.75L199.83 113.62C199.83 111.89 201.23 110.5 202.96 110.5L562.52 110.5C564.25 110.5 565.65 111.89 565.65 113.62L565.65 330.75C565.65 332.48 564.25 333.88 562.52 333.88ZM206.08 327.63L559.4 327.63L559.4 116.75L206.08 116.75L206.08 327.63Z" />
		<path id="Path 7" fill-rule="evenodd" class="shp0" d="M537.9 311.13L223.82 311.13C222.1 311.13 220.7 309.73 220.7 308.01L220.7 136.36C220.7 134.64 222.1 133.24 223.82 133.24L537.9 133.24C539.63 133.24 541.02 134.64 541.02 136.36L541.02 308.01C541.02 309.73 539.63 311.13 537.9 311.13ZM226.95 304.88L534.77 304.88L534.77 139.49L226.95 139.49L226.95 304.88ZM93.6 329.8C93.6 313.55 103.57 299.33 118.64 293.73L118.64 280.03C118.64 278.3 120.04 276.9 121.77 276.9L142.46 276.9C144.18 276.9 145.58 278.3 145.58 280.03L145.58 293.74C160.64 299.33 170.6 313.54 170.6 329.8C170.6 338.74 167.52 347.33 161.89 354.22C167.54 366 171.83 383.51 174.48 396.46C174.77 397.88 175.04 399.27 175.31 400.67L168.96 400.67C168.75 399.69 168.56 398.71 168.35 397.71C165.64 384.44 161.18 366.29 155.39 355.21C155.16 354.75 154.92 354.32 154.68 353.89C153.58 351.94 152.49 350.35 151.41 349.15C151.39 349.13 151.38 349.11 151.36 349.08C150.38 348.01 148.95 346.73 147.5 346.54C144.83 346.58 142.73 346.96 140.31 347.38C137.39 347.9 134.1 348.46 129.48 348.46C128.02 348.46 126.37 348.04 124.48 347.54C122.43 347.02 120.12 346.42 118.18 346.42C116 346.42 115.23 347.19 114.75 347.94C114.54 348.29 114.29 348.75 114.06 349.27C113.86 349.7 113.66 350.18 113.46 350.7C113.21 351.35 112.96 352.08 112.7 352.87C112.3 354.09 111.9 355.46 111.5 356.96C109.85 363.31 108.85 369.81 108.85 372.4C108.85 395.25 104.91 412.13 100.33 431.67C98.66 438.81 96.93 446.19 95.27 454.42C104.25 456.63 120.64 458.75 134.06 458.75C136.33 458.75 138.25 458.69 139.87 458.58L139.87 464.83C138.16 464.94 136.23 465 134.06 465C120.04 465 100.16 462.56 90.71 459.67C89.18 459.19 88.25 457.65 88.56 456.06C90.43 446.54 92.37 438.25 94.25 430.25C98.73 411.08 102.6 394.54 102.6 372.4C102.6 369.2 103.59 363.02 105.01 357.17C97.73 349.96 93.6 340.08 93.6 329.8ZM156.64 329.8C156.64 321.36 152.42 313.73 145.58 309.26L145.58 315.94C145.58 317.67 144.18 319.07 142.46 319.07L121.77 319.07C120.04 319.07 118.64 317.67 118.64 315.94L118.64 309.25C111.76 313.72 107.52 321.36 107.52 329.8C107.52 334.36 108.78 338.79 111.12 342.62C112.62 341.27 114.87 340.17 118.18 340.17C120.91 340.17 123.77 340.9 126.04 341.5C127.35 341.83 128.83 342.21 129.48 342.21C133.56 342.21 136.43 341.71 139.23 341.23C141.75 340.79 144.35 340.33 147.6 340.29C147.68 340.29 147.77 340.29 147.87 340.31C149.71 340.45 151.49 341.14 153.21 342.37C155.46 338.59 156.64 334.31 156.64 329.8ZM124.89 283.15L124.89 295.96C124.89 297.34 124 298.55 122.68 298.95C109.03 303.13 99.85 315.53 99.85 329.8C99.85 337.23 102.42 344.39 107.03 350.1C107.22 349.55 107.41 349.02 107.6 348.52C103.51 343.18 101.27 336.6 101.27 329.8C101.27 317.15 108.86 305.94 120.6 301.23C121.57 300.85 122.66 300.96 123.52 301.54C124.38 302.12 124.89 303.09 124.89 304.13L124.89 312.82L139.33 312.82L139.33 304.13C139.33 303.09 139.84 302.12 140.71 301.54C141.57 300.96 142.66 300.85 143.62 301.23C155.33 305.93 162.89 317.15 162.89 329.8C162.89 336.02 161.1 341.91 157.68 346.98C157.98 347.39 158.27 347.82 158.56 348.26C162.32 342.86 164.35 336.44 164.35 329.8C164.35 315.75 154.97 303.07 141.54 298.98C140.23 298.57 139.33 297.36 139.33 295.99L139.33 283.15L124.89 283.15Z" />
		<path id="Path 8" fill-rule="evenodd" class="shp0" d="M360.47 430.77L341.1 430.77C339.37 430.77 337.98 429.37 337.98 427.65L337.98 352.6C337.98 350.88 339.37 349.48 341.1 349.48L360.47 349.48C362.2 349.48 363.6 350.88 363.6 352.6L363.6 363.92L399.23 363.92C400.95 363.92 402.35 365.31 402.35 367.04L402.35 377.02C402.35 378.55 401.25 379.83 399.79 380.1L399.79 381.77C399.79 383.5 398.39 384.9 396.66 384.9L386.25 384.9C384.52 384.9 383.12 383.5 383.12 381.77L383.12 380.15L363.6 380.15L363.6 427.65C363.6 429.37 362.2 430.77 360.47 430.77ZM344.23 424.52L357.35 424.52L357.35 377.02C357.35 375.29 358.75 373.9 360.47 373.9L386.25 373.9C387.97 373.9 389.37 375.29 389.37 377.02L389.37 378.65L393.54 378.65L393.54 377.02C393.54 375.49 394.64 374.21 396.1 373.95L396.1 370.17L360.47 370.17C358.75 370.17 357.35 368.77 357.35 367.04L357.35 355.73L344.23 355.73L344.23 424.52Z" />
		<text id=" " style="transform: matrix(1,0,0,1,545,112.5)" >
		</text>
		<path id="Path 9" fill-rule="evenodd" class="shp0" d="M458.31 475.35L324.45 475.35C324 475.35 323.55 475.25 323.13 475.06C298.29 463.43 284.04 446.15 284.04 427.65C284.04 425.92 285.44 424.52 287.16 424.52L495.6 424.52C497.33 424.52 498.73 425.92 498.73 427.65C498.73 446.15 484.48 463.43 459.63 475.06C459.22 475.25 458.77 475.35 458.31 475.35ZM325.15 469.1L457.61 469.1C478.31 459.26 490.76 445.45 492.31 430.77L290.45 430.77C292.01 445.45 304.45 459.26 325.15 469.1Z" />
		<path id="Path 10" fill-rule="evenodd" class="shp0" d="M633.33 500.85L132.16 500.85C130.44 500.85 129.04 499.45 129.04 497.73L129.04 472.23C129.04 470.5 130.44 469.1 132.16 469.1L633.33 469.1C635.06 469.1 636.46 470.5 636.46 472.23L636.46 497.73C636.46 499.45 635.06 500.85 633.33 500.85ZM135.29 494.6L630.21 494.6L630.21 475.35L135.29 475.35L135.29 494.6Z" />
		<path id="Path 11" fill-rule="evenodd" class="shp0" d="M627.38 725.25L139.88 725.25C138.16 725.25 136.76 723.85 136.76 722.13L136.76 497.73C136.76 496.01 138.16 494.61 139.88 494.61L627.38 494.61C629.11 494.61 630.51 496.01 630.51 497.73L630.51 722.13C630.51 723.85 629.11 725.25 627.38 725.25ZM143.01 719L624.26 719L624.26 500.86L143.01 500.86L143.01 719Z" />
		<path id="Path 12" fill-rule="evenodd" class="shp0" d="M327.55 529.72L229.66 529.72C227.94 529.72 226.54 528.32 226.54 526.6L226.54 519.15C226.54 517.43 227.94 516.03 229.66 516.03L327.55 516.03C329.28 516.03 330.67 517.43 330.67 519.15L330.67 526.6C330.67 528.32 329.28 529.72 327.55 529.72ZM232.79 523.47L324.42 523.47L324.42 522.28L232.79 522.28L232.79 523.47ZM445.28 656.35L437.84 656.35C436.11 656.35 434.71 654.95 434.71 653.23L434.71 555.34C434.71 553.61 436.11 552.21 437.84 552.21L445.28 552.21C447.01 552.21 448.4 553.61 448.4 555.34L448.4 653.23C448.4 654.95 447.01 656.35 445.28 656.35ZM440.96 650.1L442.15 650.1L442.15 558.46L440.96 558.46L440.96 650.1Z" />
		<path id="Path 13" fill-rule="evenodd" class="shp0" d="M327.55 643.33L229.66 643.33C227.94 643.33 226.54 641.93 226.54 640.2L226.54 632.76C226.54 631.04 227.94 629.64 229.66 629.64L327.55 629.64C329.28 629.64 330.67 631.04 330.67 632.76L330.67 640.2C330.67 641.93 329.28 643.33 327.55 643.33ZM232.79 637.08L324.42 637.08L324.42 635.89L232.79 635.89L232.79 637.08ZM179.28 778.68L163.25 778.68C161.7 778.68 160.39 777.55 160.16 776.02L152.15 722.58C152.01 721.68 152.27 720.77 152.87 720.08C153.46 719.39 154.33 718.99 155.24 718.99L187.29 718.99C188.2 718.99 189.07 719.39 189.66 720.08C190.25 720.77 190.52 721.68 190.38 722.58L182.37 776.02C182.14 777.55 180.83 778.68 179.28 778.68ZM165.94 772.43L176.59 772.43L183.66 725.24L158.87 725.24L165.94 772.43ZM602.79 778.68L586.76 778.68C585.22 778.68 583.9 777.55 583.68 776.02L575.66 722.58C575.53 721.68 575.79 720.77 576.38 720.08C576.97 719.39 577.84 718.99 578.75 718.99L610.8 718.99C611.71 718.99 612.58 719.39 613.17 720.08C613.77 720.77 614.03 721.68 613.89 722.58L605.88 776.02C605.65 777.55 604.34 778.68 602.79 778.68ZM589.46 772.43L600.1 772.43L607.17 725.24L582.38 725.24L589.46 772.43ZM558.04 475.35L498.62 475.35C497.2 475.35 495.95 474.39 495.6 473.01L492.58 461.3C492.33 460.37 492.54 459.37 493.13 458.61C493.72 457.84 494.63 457.4 495.6 457.4L502.19 457.4C502.63 456.02 503.39 454.75 504.43 453.69C506.24 451.91 508.56 450.96 511.02 450.96L545.56 450.96C549.68 450.96 553.19 453.67 554.39 457.4L560.98 457.4C561.94 457.4 562.85 457.84 563.44 458.6C564.03 459.36 564.24 460.35 564.01 461.28L561.07 472.99C560.72 474.38 559.47 475.35 558.04 475.35ZM501.04 469.1L555.6 469.1L556.97 463.65L551.69 463.65C550.75 463.65 549.87 463.23 549.27 462.51C548.73 461.85 548.49 461.01 548.58 460.18C548.53 458.52 547.2 457.21 545.56 457.21L511.02 457.21C510.21 457.21 509.44 457.53 508.85 458.1C508.33 458.64 508.01 459.38 508 460.16C508.09 461 507.85 461.84 507.31 462.5C506.72 463.22 505.83 463.65 504.89 463.65L499.63 463.65L501.04 469.1ZM572.9 420C572.24 420 571.58 419.79 571.04 419.39C570.33 418.86 569.88 418.06 569.79 417.17L568.06 399.19C567.98 398.31 568.28 397.43 568.87 396.78C569.47 396.12 570.3 395.77 571.21 395.77L578.59 395.84C580.18 395.86 581.51 397.08 581.66 398.67L583.24 415.11C583.39 416.7 582.32 418.15 580.75 418.47L573.52 419.94C573.32 419.98 573.11 420 572.9 420ZM574.62 402.05L575.68 413.12L576.75 412.91L575.71 402.06L574.62 402.05Z" />
		<path id="Path 14" fill-rule="evenodd" class="shp0" d="M618.87 420.11C618.65 420.11 618.43 420.08 618.21 420.04L611 418.48C609.43 418.15 608.37 416.68 608.55 415.09L610.33 398.67C610.5 397.09 611.84 395.88 613.44 395.88C613.44 395.88 613.44 395.88 613.44 395.88L620.82 395.9C621.71 395.9 622.55 396.28 623.14 396.94C623.73 397.6 624.02 398.48 623.92 399.36L621.97 417.32C621.88 418.2 621.41 419 620.7 419.51C620.16 419.9 619.52 420.11 618.87 420.11ZM615.06 412.97L616.13 413.2L617.33 402.14L616.24 402.14L615.06 412.97ZM614.31 475.34L577.24 475.34C575.52 475.34 574.12 473.94 574.12 472.21L574.12 436.18C574.12 434.45 575.52 433.05 577.24 433.05L614.31 433.05C616.03 433.05 617.43 434.45 617.43 436.18L617.43 472.21C617.43 473.94 616.03 475.34 614.31 475.34ZM580.37 469.09L611.18 469.09L611.18 439.3L580.37 439.3L580.37 469.09ZM230.89 475.26L186.95 475.26C185.23 475.26 183.83 473.86 183.83 472.13L183.83 422.82C183.83 421.09 185.23 419.69 186.95 419.69L230.89 419.69C232.62 419.69 234.02 421.09 234.02 422.82L234.02 472.13C234.02 473.86 232.62 475.26 230.89 475.26ZM190.08 469.01L227.77 469.01L227.77 425.94L190.08 425.94L190.08 469.01Z" />
		<path id="Path 15" fill-rule="evenodd" class="shp0" d="M221.35 425.94L198.87 425.94C197.82 425.94 196.83 425.41 196.25 424.52C195.36 423.15 194.24 421.87 193.05 420.52C192.53 419.93 192.01 419.33 191.5 418.72C190.58 417.63 190.52 416.05 191.36 414.89C192.47 413.35 194.06 413.01 194.92 412.84C194.93 412.84 194.93 412.83 194.94 412.83C195.91 411.44 197.24 410.89 198.15 410.51C198.35 410.43 198.55 410.35 198.74 410.25C199.89 409.64 200.71 409.59 201.73 409.59L202.33 409.6C203 409.6 203.66 409.57 204.31 409.54C205.64 409.49 207.1 409.46 208.09 409.66C209.1 408.65 210.25 408.4 211.12 408.4C211.74 408.4 212.26 408.52 212.72 408.62C212.9 408.67 213.1 408.71 213.33 408.75L213.76 408.82C214.75 408.98 215.53 409.02 215.73 408.9C216.29 408.55 217.17 408.01 218.41 408.01C218.74 408.01 219.08 408.05 219.41 408.13C220.47 408.37 221.35 408.98 221.99 409.43C222.14 409.53 222.29 409.64 222.41 409.71C223.3 410.23 223.97 410.51 224.67 410.67C225.6 410.89 226.39 411.53 226.79 412.4C227.2 413.27 227.17 414.28 226.74 415.14C226.67 415.27 226.61 415.38 226.58 415.49C226.58 415.52 226.64 415.78 226.64 415.81C226.8 417 226.7 417.98 225.76 419.23C225.11 420.15 225.02 420.28 224.9 420.9C224.77 421.64 224.62 422.39 224.47 423.15L224.41 423.43C224.12 424.89 222.84 425.94 221.35 425.94ZM200.49 419.69L218.77 419.69C219.1 417.96 219.7 416.98 220.36 416.04C220.35 415.92 220.34 415.81 220.34 415.7C220.02 415.54 219.69 415.36 219.36 415.16C219.16 415.06 218.8 414.82 218.43 414.56C218.42 414.56 218.41 414.55 218.41 414.55C217.44 415.02 216.4 415.25 215.24 415.25C214.34 415.25 213.5 415.11 212.75 414.99L212.36 414.92C212.25 414.91 212.14 414.89 212.03 414.87C211.19 415.89 210.13 416.13 209.33 416.13C209.2 416.13 209.05 416.13 208.87 416.11C208.2 416.09 207.63 415.96 207.16 415.86C206.91 415.8 206.62 415.74 206.5 415.74C205.85 415.74 205.21 415.76 204.56 415.79C203.82 415.82 203.08 415.85 202.33 415.85L201.65 415.84C201.62 415.84 201.59 415.84 201.55 415.84C201.14 416.04 200.84 416.16 200.55 416.29C200.37 416.36 200.16 416.45 200.01 416.52C199.71 417.05 199.35 417.46 198.96 417.79C199.48 418.4 199.99 419.03 200.49 419.69ZM274.73 475.26L245.5 475.26C243.77 475.26 242.37 473.86 242.37 472.13L242.37 422.82C242.37 421.09 243.77 419.69 245.5 419.69L274.73 419.69C276.45 419.69 277.85 421.09 277.85 422.82L277.85 472.13C277.85 473.86 276.45 475.26 274.73 475.26ZM248.62 469.01L271.6 469.01L271.6 425.94L248.62 425.94L248.62 469.01ZM175.75 475.26L151.73 475.26C148.95 475.26 146.68 472.99 146.68 470.21L146.68 431.44C146.68 425.83 149.43 420.64 153.98 417.48L153.98 413.59C153.98 412.74 154.32 411.96 154.87 411.4L154.87 409.15C154.87 406.9 156.7 405.07 158.95 405.07L168.52 405.07C170.77 405.07 172.6 406.9 172.6 409.15L172.6 411.4C173.15 411.96 173.5 412.74 173.5 413.59L173.5 417.48C174.32 418.05 175.08 418.69 175.79 419.4C179.01 422.59 180.79 426.88 180.79 431.44L180.79 470.21C180.79 472.99 178.53 475.26 175.75 475.26ZM152.93 469.01L174.54 469.01L174.54 431.44C174.54 428.55 173.42 425.85 171.38 423.83C170.63 423.08 169.75 422.43 168.82 421.93C167.56 421.26 166.92 419.83 167.25 418.46L167.25 415.78C166.69 415.21 166.35 414.44 166.35 413.59L166.35 411.32L161.12 411.32L161.12 413.59C161.12 414.44 160.78 415.21 160.23 415.78L160.23 418.66C160.45 419.97 159.85 421.29 158.65 421.93C155.13 423.81 152.93 427.46 152.93 431.44L152.93 469.01ZM1377.08 364.35L815.61 364.35C813.88 364.35 812.48 362.95 812.48 361.22L812.48 111.7C812.48 109.97 813.88 108.57 815.61 108.57L1377.08 108.57C1378.81 108.57 1380.21 109.97 1380.21 111.7L1380.21 361.22C1380.21 362.95 1378.81 364.35 1377.08 364.35ZM818.73 358.1L1373.96 358.1L1373.96 114.82L818.73 114.82L818.73 358.1Z" />
		<path id="Path 16" fill-rule="evenodd" class="shp0" d="M1360.42 347.68L832.28 347.68C830.55 347.68 829.15 346.28 829.15 344.55L829.15 128.37C829.15 126.64 830.55 125.24 832.28 125.24L1360.42 125.24C1362.14 125.24 1363.54 126.64 1363.54 128.37L1363.54 344.55C1363.54 346.28 1362.14 347.68 1360.42 347.68ZM835.4 341.43L1357.29 341.43L1357.29 131.49L835.4 131.49L835.4 341.43ZM656.69 170.31L614.5 170.31C612.78 170.31 611.38 168.92 611.38 167.19L611.38 113.59C611.38 111.87 612.78 110.47 614.5 110.47L656.69 110.47C658.42 110.47 659.82 111.87 659.82 113.59L659.82 167.19C659.82 168.92 658.42 170.31 656.69 170.31ZM617.63 164.06L653.57 164.06L653.57 116.72L617.63 116.72L617.63 164.06Z" />
		<path id="Path 17" fill-rule="evenodd" class="shp0" d="M656.69 250.63L614.5 250.63C612.78 250.63 611.38 249.23 611.38 247.51L611.38 193.91C611.38 192.18 612.78 190.78 614.5 190.78L656.69 190.78C658.42 190.78 659.82 192.18 659.82 193.91L659.82 247.51C659.82 249.23 658.42 250.63 656.69 250.63ZM617.63 244.38L653.57 244.38L653.57 197.03L617.63 197.03L617.63 244.38Z" />
		<path id="Path 18" fill-rule="evenodd" class="shp0" d="M648.19 197.03L623.01 197.03C621.29 197.03 619.89 195.64 619.89 193.91L619.89 167.19C619.89 165.46 621.29 164.06 623.01 164.06L648.19 164.06C649.91 164.06 651.31 165.46 651.31 167.19L651.31 193.91C651.31 195.64 649.91 197.03 648.19 197.03ZM626.14 190.78L645.06 190.78L645.06 170.31L626.14 170.31L626.14 190.78ZM523.56 275.26C522.76 275.26 521.96 274.95 521.35 274.34L399.97 152.96C398.75 151.74 398.75 149.76 399.97 148.54C401.19 147.32 403.17 147.32 404.39 148.54L525.77 269.92C527 271.14 527 273.12 525.77 274.34C525.16 274.95 524.36 275.26 523.56 275.26ZM521.54 185.91C520.74 185.91 519.94 185.61 519.33 185L487.29 152.96C486.07 151.74 486.07 149.76 487.29 148.54C488.51 147.32 490.49 147.32 491.71 148.54L523.75 180.58C524.97 181.8 524.97 183.78 523.75 185C523.14 185.61 522.34 185.91 521.54 185.91ZM495.6 293.66C494.8 293.66 494 293.35 493.39 292.74L353.6 152.96C352.38 151.74 352.38 149.76 353.6 148.54C354.82 147.32 356.8 147.32 358.02 148.54L497.81 288.32C499.03 289.54 499.03 291.52 497.81 292.74C497.2 293.35 496.4 293.66 495.6 293.66ZM322.22 290.75C321.42 290.75 320.62 290.44 320.01 289.83L239.2 209.02C237.98 207.8 237.98 205.82 239.2 204.6C240.42 203.38 242.4 203.38 243.62 204.6L324.43 285.41C325.65 286.63 325.65 288.61 324.43 289.83C323.82 290.44 323.02 290.75 322.22 290.75ZM278.12 293.66C277.32 293.66 276.52 293.35 275.91 292.74L239.2 256.04C237.98 254.82 237.98 252.84 239.2 251.62C240.42 250.4 242.4 250.4 243.62 251.62L280.33 288.32C281.55 289.54 281.55 291.52 280.33 292.74C279.72 293.35 278.92 293.66 278.12 293.66ZM1131.42 514.42C1129.7 514.42 1128.3 513.02 1128.3 511.29L1128.3 503.65C1128.3 501.93 1129.7 500.53 1131.42 500.53C1133.15 500.53 1134.55 501.93 1134.55 503.65L1134.55 511.29C1134.55 513.02 1133.15 514.42 1131.42 514.42ZM645.06 157.8C643.33 157.8 641.93 156.4 641.93 154.67L641.93 123.42C641.93 121.7 643.33 120.3 645.06 120.3C646.79 120.3 648.18 121.7 648.18 123.42L648.18 154.67C648.18 156.4 646.79 157.8 645.06 157.8ZM645.06 240.61C643.33 240.61 641.93 239.21 641.93 237.49L641.93 203.63C641.93 201.9 643.33 200.51 645.06 200.51C646.79 200.51 648.18 201.9 648.18 203.63L648.18 237.49C648.18 239.21 646.79 240.61 645.06 240.61ZM149.14 170.31L106.95 170.31C105.22 170.31 103.83 168.92 103.83 167.19L103.83 113.59C103.83 111.87 105.22 110.47 106.95 110.47L149.14 110.47C150.86 110.47 152.26 111.87 152.26 113.59L152.26 167.19C152.26 168.92 150.86 170.31 149.14 170.31ZM110.08 164.06L146.01 164.06L146.01 116.72L110.08 116.72L110.08 164.06Z" />
		<path id="Path 20" fill-rule="evenodd" class="shp0" d="M140.63 197.03L115.46 197.03C113.73 197.03 112.33 195.64 112.33 193.91L112.33 167.19C112.33 165.46 113.73 164.06 115.46 164.06L140.63 164.06C142.36 164.06 143.76 165.46 143.76 167.19L143.76 193.91C143.76 195.64 142.36 197.03 140.63 197.03ZM118.58 190.78L137.51 190.78L137.51 170.31L118.58 170.31L118.58 190.78ZM137.51 157.8C135.78 157.8 134.38 156.4 134.38 154.67L134.38 123.42C134.38 121.7 135.78 120.3 137.51 120.3C139.23 120.3 140.63 121.7 140.63 123.42L140.63 154.67C140.63 156.4 139.23 157.8 137.51 157.8ZM137.51 240.61C135.78 240.61 134.38 239.21 134.38 237.49L134.38 203.63C134.38 201.9 135.78 200.51 137.51 200.51C139.23 200.51 140.63 201.9 140.63 203.63L140.63 237.49C140.63 239.21 139.23 240.61 137.51 240.61ZM265.11 417.95C263.39 417.95 261.99 416.56 261.99 414.83L261.99 405.19L257.82 405.19L257.82 408.06C257.82 409.79 256.42 411.18 254.69 411.18L241.41 411.18C239.69 411.18 238.29 409.79 238.29 408.06C238.29 406.33 239.69 404.93 241.41 404.93L251.57 404.93L251.57 402.07C251.57 400.34 252.97 398.94 254.69 398.94L265.11 398.94C266.84 398.94 268.24 400.34 268.24 402.07L268.24 414.83C268.24 416.56 266.84 417.95 265.11 417.95ZM413.29 710.92C411.56 710.92 410.16 709.52 410.16 707.8L410.16 510.53C410.16 508.81 411.56 507.41 413.29 507.41C415.01 507.41 416.41 508.81 416.41 510.53L416.41 707.8C416.41 709.52 415.01 710.92 413.29 710.92ZM396.66 602.36L155.24 602.36C153.51 602.36 152.11 600.96 152.11 599.23C152.11 597.51 153.51 596.11 155.24 596.11L396.66 596.11C398.39 596.11 399.78 597.51 399.78 599.23C399.78 600.96 398.39 602.36 396.66 602.36ZM584.12 439.3C582.6 439.3 581.26 438.19 581.03 436.64L575.46 399.43C575.21 397.72 576.38 396.13 578.09 395.88C579.8 395.62 581.39 396.8 581.64 398.5L587.21 435.72C587.47 437.42 586.29 439.01 584.59 439.27C584.43 439.29 584.27 439.3 584.12 439.3ZM608.6 439.3C608.47 439.3 608.33 439.3 608.2 439.28C606.49 439.05 605.28 437.49 605.5 435.78L610.34 398.61C610.56 396.89 612.13 395.68 613.84 395.91C615.55 396.13 616.76 397.7 616.54 399.41L611.7 436.58C611.5 438.16 610.15 439.3 608.6 439.3ZM1424.31 643.5C1424.3 643.5 1424.3 643.5 1424.29 643.5L1347.9 643.15C1346.18 643.14 1344.78 641.74 1344.79 640.01C1344.8 638.29 1346.2 636.9 1347.92 636.9C1347.92 636.9 1347.93 636.9 1347.93 636.9L1424.32 637.25C1426.05 637.26 1427.44 638.67 1427.43 640.39C1427.42 642.11 1426.03 643.5 1424.31 643.5ZM870.31 643.33L750 643.33C748.27 643.33 746.88 641.93 746.88 640.2C746.88 638.48 748.27 637.08 750 637.08L870.31 637.08C872.04 637.08 873.44 638.48 873.44 640.2C873.44 641.93 872.04 643.33 870.31 643.33ZM725.06 40.08C725.06 38.36 726.46 36.96 728.18 36.96C729.91 36.96 731.31 38.36 731.31 40.08L731.31 736.33C731.31 736.37 731.31 736.41 731.31 736.44C731.31 738.17 729.91 739.57 728.18 739.57L645.06 739.57C643.33 739.57 641.93 738.17 641.93 736.44C641.93 734.72 643.33 733.32 645.06 733.32L725.06 733.32L725.06 40.08ZM128.04 739.57L39.59 739.57C37.86 739.57 36.46 738.17 36.46 736.44C36.46 734.72 37.86 733.32 39.59 733.32L128.04 733.32C129.77 733.32 131.17 734.72 131.17 736.44C131.17 738.17 129.77 739.57 128.04 739.57ZM553.47 739.57L208.92 739.57C207.2 739.57 205.8 738.17 205.8 736.44C205.8 734.72 207.2 733.32 208.92 733.32L553.47 733.32C555.2 733.32 556.6 734.72 556.6 736.44C556.6 738.17 555.2 739.57 553.47 739.57ZM200.42 855.78C200.03 855.78 199.64 855.7 199.26 855.55C197.66 854.91 196.88 853.09 197.52 851.49L212.69 813.58C213.16 812.39 214.31 811.61 215.59 811.61L1239.41 811.61C1240.59 811.61 1241.67 812.28 1242.2 813.33L1260.85 850.35C1261.63 851.9 1261.01 853.77 1259.47 854.55C1257.93 855.32 1256.05 854.71 1255.27 853.16L1237.49 817.86L217.71 817.86L203.32 853.81C202.84 855.03 201.66 855.78 200.42 855.78ZM1180.51 320.56L1131.42 320.56C1129.7 320.56 1128.3 319.16 1128.3 317.43L1128.3 300.94L1070.49 300.94L1070.49 317.43C1070.49 319.16 1069.09 320.56 1067.37 320.56L1047.92 320.56C1046.2 320.56 1044.8 319.16 1044.8 317.43L1044.8 263.66L980.21 263.66L980.21 317.43C980.21 319.16 978.81 320.56 977.09 320.56L964.59 320.56C962.86 320.56 961.46 319.16 961.46 317.43L961.46 292.51L917.71 292.51L917.71 297.81C917.71 299.54 916.31 300.94 914.59 300.94L884.38 300.94L884.38 317.43C884.38 319.16 882.98 320.56 881.26 320.56L856.26 320.56C854.53 320.56 853.13 319.16 853.13 317.43C853.13 315.71 854.53 314.31 856.26 314.31L878.13 314.31L878.13 297.81C878.13 296.09 879.53 294.69 881.26 294.69L911.46 294.69L911.46 289.39C911.46 287.66 912.86 286.26 914.59 286.26L964.59 286.26C966.31 286.26 967.71 287.66 967.71 289.39L967.71 314.31L973.96 314.31L973.96 260.53C973.96 258.81 975.36 257.41 977.09 257.41L1047.92 257.41C1049.65 257.41 1051.05 258.81 1051.05 260.53L1051.05 314.31L1064.24 314.31L1064.24 297.81C1064.24 296.09 1065.64 294.69 1067.37 294.69L1131.42 294.69C1133.15 294.69 1134.55 296.09 1134.55 297.81L1134.55 314.31L1177.39 314.31L1177.39 250.72C1177.39 249 1178.78 247.6 1180.51 247.6L1256.26 247.6C1257.98 247.6 1259.38 249 1259.38 250.72L1259.38 294.69L1273.96 294.69L1273.96 203.63C1273.96 201.9 1275.36 200.51 1277.09 200.51L1340.98 200.51C1342.7 200.51 1344.1 201.9 1344.1 203.63C1344.1 205.36 1342.7 206.76 1340.98 206.76L1280.21 206.76L1280.21 297.81C1280.21 299.54 1278.81 300.94 1277.09 300.94L1256.26 300.94C1254.53 300.94 1253.13 299.54 1253.13 297.81L1253.13 253.85L1183.64 253.85L1183.64 317.43C1183.64 319.16 1182.24 320.56 1180.51 320.56ZM1300.7 313.69C1298.97 313.69 1297.57 312.3 1297.57 310.57L1297.57 216.82C1297.57 215.09 1298.97 213.69 1300.7 213.69C1302.42 213.69 1303.82 215.09 1303.82 216.82L1303.82 310.57C1303.82 312.3 1302.42 313.69 1300.7 313.69ZM1322.57 313.69C1320.85 313.69 1319.45 312.3 1319.45 310.57L1319.45 216.82C1319.45 215.09 1320.85 213.69 1322.57 213.69C1324.3 213.69 1325.7 215.09 1325.7 216.82L1325.7 310.57C1325.7 312.3 1324.3 313.69 1322.57 313.69ZM1242.19 270.81L1195.31 270.81C1193.59 270.81 1192.19 269.41 1192.19 267.69C1192.19 265.96 1193.59 264.56 1195.31 264.56L1242.19 264.56C1243.91 264.56 1245.31 265.96 1245.31 267.69C1245.31 269.41 1243.91 270.81 1242.19 270.81ZM1242.19 289.56L1195.31 289.56C1193.59 289.56 1192.19 288.16 1192.19 286.44C1192.19 284.71 1193.59 283.31 1195.31 283.31L1242.19 283.31C1243.91 283.31 1245.31 284.71 1245.31 286.44C1245.31 288.16 1243.91 289.56 1242.19 289.56ZM1032.12 279.28L993.75 279.28C992.02 279.28 990.63 277.88 990.63 276.15C990.63 274.42 992.02 273.03 993.75 273.03L1032.12 273.03C1033.84 273.03 1035.24 274.42 1035.24 276.15C1035.24 277.88 1033.84 279.28 1032.12 279.28ZM1032.12 302.19L993.75 302.19C992.02 302.19 990.63 300.79 990.63 299.07C990.63 297.34 992.02 295.94 993.75 295.94L1032.12 295.94C1033.84 295.94 1035.24 297.34 1035.24 299.07C1035.24 300.79 1033.84 302.19 1032.12 302.19Z" />
	</g>
</svg>